<?xml version="1.0" standalone="no"?>
<!DOCTYPE svg PUBLIC "-//W3C//DTD SVG 20010904//EN"
 "http://www.w3.org/TR/2001/REC-SVG-20010904/DTD/svg10.dtd">
<svg version="1.0" xmlns="http://www.w3.org/2000/svg"
 width="2084.000000pt" height="2084.000000pt" viewBox="0 0 2084.000000 2084.000000"
 preserveAspectRatio="xMidYMid meet">
<metadata>
Created by potrace 1.11, written by Peter Selinger 2001-2013
</metadata>
<g transform="translate(0.000000,2084.000000) scale(0.100000,-0.100000)"
fill="#000000" stroke="none">
<path d="M9860 17914 c-36 -2 -159 -8 -275 -14 -2341 -120 -4573 -762 -6635
-1910 -254 -141 -352 -201 -618 -381 l-247 -166 -3 -373 -2 -372 43 -92 c69
-145 124 -196 212 -196 87 0 177 60 345 230 114 115 138 134 270 213 601 356
1368 737 2034 1012 1204 495 2484 828 3746 974 519 60 868 82 1445 88 821 9
1460 -31 2250 -143 406 -57 1050 -175 1235 -225 288 -79 427 -256 378 -481
-45 -205 -135 -319 -287 -365 -85 -26 -229 -21 -376 12 -446 99 -922 181
-1335 229 -930 110 -1957 120 -2955 30 -2113 -189 -4066 -884 -5935 -2112
-456 -300 -731 -504 -801 -597 -105 -139 -111 -285 -30 -675 47 -224 106 -310
211 -310 82 0 124 24 345 196 1170 910 2647 1630 4435 2159 1537 455 3090 551
4815 299 488 -71 1076 -190 1178 -238 68 -33 158 -112 192 -171 65 -110 87
-247 61 -378 -41 -207 -158 -326 -350 -357 -81 -13 -143 -6 -371 44 -1251 271
-2557 325 -3870 160 -1864 -233 -3576 -874 -5155 -1927 -336 -224 -746 -527
-866 -640 -74 -69 -153 -182 -183 -261 -42 -113 -46 -284 -10 -445 32 -145
240 -772 374 -1127 348 -924 788 -1837 1321 -2740 938 -1591 2121 -2958 3549
-4103 594 -477 1237 -920 1895 -1308 272 -161 388 -198 595 -191 101 4 134 9
207 35 127 44 227 110 344 227 87 87 204 238 204 263 -1 13 -224 155 -415 264
-943 534 -1799 1124 -2530 1744 -507 429 -1036 950 -1462 1437 -562 642 -1093
1400 -1517 2167 -259 468 -454 859 -944 1896 -363 770 -361 765 -378 846 -39
185 42 353 213 441 208 108 366 96 498 -38 68 -69 100 -132 180 -354 267 -739
625 -1485 1070 -2230 442 -740 973 -1492 1454 -2060 1142 -1347 2566 -2452
4221 -3275 285 -141 363 -169 520 -187 135 -15 242 5 370 68 80 40 109 62 191
143 52 53 116 128 141 166 52 79 132 224 127 229 -33 30 -265 159 -399 221
-1266 593 -2294 1258 -3250 2103 -203 179 -750 725 -925 922 -502 567 -959
1187 -1422 1930 -367 589 -716 1241 -961 1797 -204 460 -461 1155 -532 1433
-40 159 -33 296 20 400 68 132 253 227 424 218 103 -6 162 -33 237 -108 75
-75 115 -157 179 -368 479 -1602 1345 -3133 2600 -4597 460 -537 926 -992
1410 -1380 850 -681 1818 -1245 2920 -1703 313 -130 329 -135 448 -140 89 -4
111 -1 165 18 125 46 173 86 429 357 945 1004 1665 1982 2260 3073 785 1439
1306 2708 1608 3922 160 643 254 1208 435 2603 46 363 94 725 105 804 17 125
20 196 19 520 l0 376 -172 122 c-399 282 -619 392 -702 352 -16 -8 -39 -31
-51 -53 -43 -76 -49 -133 -114 -1046 -106 -1484 -173 -2070 -320 -2811 -360
-1814 -1120 -3561 -2292 -5274 -338 -493 -893 -1260 -964 -1331 -81 -82 -183
-139 -267 -149 -201 -25 -456 185 -474 391 -11 125 45 255 196 454 382 504
534 714 776 1075 381 568 695 1105 1000 1710 927 1840 1426 3762 1504 5790 16
423 23 1243 12 1408 -27 379 -84 460 -431 614 -392 173 -506 175 -566 8 -17
-47 -18 -119 -19 -1140 -1 -1094 -3 -1189 -40 -1630 -131 -1544 -553 -3049
-1247 -4449 -451 -908 -955 -1689 -1670 -2589 -256 -321 -699 -858 -748 -906
-93 -91 -216 -151 -310 -151 -144 0 -330 134 -404 290 -28 58 -31 75 -31 155
0 80 3 97 32 157 46 97 74 135 261 351 1705 1965 2736 4010 3126 6202 167 936
204 1663 151 2955 -8 201 -19 511 -25 690 -6 179 -15 345 -21 369 -28 124
-120 232 -249 294 -149 70 -776 231 -1335 341 -642 126 -1247 204 -1965 252
-218 15 -1343 28 -1530 18z m1131 -4824 c669 -38 1301 -131 1939 -286 316 -77
436 -112 502 -146 43 -23 259 -189 321 -247 4 -4 -18 -73 -48 -152 -31 -79
-133 -344 -227 -589 -308 -807 -465 -1181 -659 -1570 -399 -799 -910 -1551
-1547 -2275 -190 -215 -531 -573 -627 -657 -212 -186 -275 -176 -543 86 -261
255 -580 609 -843 936 -875 1088 -1521 2286 -1968 3655 -108 330 -131 419
-131 514 0 210 101 297 450 385 740 189 1537 309 2305 349 158 8 912 6 1076
-3z"/>
</g>
</svg>
